HIERARCHY
ROOT hip
{
  OFFSET 0 0 0
  CHANNELS 6 Xposition Yposition Zposition Zrotation Yrotation Xrotation
  JOINT abdomen
  {
    OFFSET 0 20.6881 -0.73152
    CHANNELS 3 Zrotation Xrotation Yrotation
    JOINT chest
    {
      OFFSET 0 11.7043 -0.48768
      CHANNELS 3 Zrotation Xrotation Yrotation
      JOINT neck
      {
        OFFSET 0 22.1894 -2.19456
        CHANNELS 3 Zrotation Xrotation Yrotation
        JOINT head
        {
          OFFSET -0.24384 7.07133 1.2192
          CHANNELS 3 Zrotation Xrotation Yrotation
          JOINT leftEye
          {
            OFFSET 4.14528 8.04674 8.04672
            CHANNELS 3 Zrotation Xrotation Yrotation
            End Site
            {
              OFFSET 1 0 0
            }
          }
          JOINT rightEye
          {
            OFFSET -3.6576 8.04674 8.04672
            CHANNELS 3 Zrotation Xrotation Yrotation
            End Site
            {
              OFFSET 1 0 0
            }
          }
        }
      }
      JOINT rCollar
      {
        OFFSET -2.68224 19.2634 -4.8768
        CHANNELS 3 Zrotation Xrotation Yrotation
        JOINT rShldr
        {
          OFFSET -8.77824 -1.95073 1.46304
          CHANNELS 3 Zrotation Xrotation Yrotation
          JOINT rForeArm
          {
            OFFSET -28.1742 -1.7115 0.48768
            CHANNELS 3 Zrotation Xrotation Yrotation
            JOINT rHand
            {
              OFFSET -22.5879 0.773209 7.07136
              CHANNELS 3 Zrotation Xrotation Yrotation
              JOINT rThumb1
              {
                OFFSET -1.2192 -0.487915 3.41376
                CHANNELS 3 Zrotation Xrotation Yrotation
                JOINT rThumb2
                {
                  OFFSET -3.37035 -0.52449 3.41376
                  CHANNELS 3 Zrotation Xrotation Yrotation
                  End Site
                  {
                    OFFSET -1.78271 -1.18214 1.43049
                  }
                }
              }
              JOINT rIndex1
              {
                OFFSET -7.75947 0.938293 5.60832
                CHANNELS 3 Zrotation Xrotation Yrotation
                JOINT rIndex2
                {
                  OFFSET -2.54057 -0.884171 1.56538
                  CHANNELS 3 Zrotation Xrotation Yrotation
                  End Site
                  {
                    OFFSET -1.62519 -0.234802 1.16502
                  }
                }
              }
              JOINT rMid1
              {
                OFFSET -8.24714 1.18213 3.41376
                CHANNELS 3 Zrotation Xrotation Yrotation
                JOINT rMid2
                {
                  OFFSET -3.10165 -0.590103 1.0647
                  CHANNELS 3 Zrotation Xrotation Yrotation
                  End Site
                  {
                    OFFSET -2.48547 -0.328903 0.83742
                  }
                }
              }
              JOINT rRing1
              {
                OFFSET -8.82822 0.546677 1.51678
                CHANNELS 3 Zrotation Xrotation Yrotation
                JOINT rRing2
                {
                  OFFSET -2.60934 -0.819778 -0.0198488
                  CHANNELS 3 Zrotation Xrotation Yrotation
                  End Site
                  {
                    OFFSET -2.33842 -0.294052 0.168128
                  }
                }
              }
              JOINT rPinky1
              {
                OFFSET -8.27202 -0.0477905 -0.4584
                CHANNELS 3 Zrotation Xrotation Yrotation
                JOINT rPinky2
                {
                  OFFSET -1.82734 -0.647385 -0.700984
                  CHANNELS 3 Zrotation Xrotation Yrotation
                  End Site
                  {
                    OFFSET -1.69225 -0.51767 -0.607171
                  }
                }
              }
            }
          }
        }
      }
      JOINT lCollar
      {
        OFFSET 2.68224 19.2634 -4.8768
        CHANNELS 3 Zrotation Xrotation Yrotation
        JOINT lShldr
        {
          OFFSET 8.77824 -1.95073 1.46304
          CHANNELS 3 Zrotation Xrotation Yrotation
          JOINT lForeArm
          {
            OFFSET 28.1742 -1.7115 0.48768
            CHANNELS 3 Zrotation Xrotation Yrotation
            JOINT lHand
            {
              OFFSET 22.5879 0.773209 7.07136
              CHANNELS 3 Zrotation Xrotation Yrotation
              JOINT lThumb1
              {
                OFFSET 1.2192 -0.487915 3.41376
                CHANNELS 3 Zrotation Xrotation Yrotation
                JOINT lThumb2
                {
                  OFFSET 3.37035 -0.52449 3.41376
                  CHANNELS 3 Zrotation Xrotation Yrotation
                  End Site
                  {
                    OFFSET 1.78271 -1.18214 1.43049
                  }
                }
              }
              JOINT lIndex1
              {
                OFFSET 7.75947 0.938293 5.60832
                CHANNELS 3 Zrotation Xrotation Yrotation
                JOINT lIndex2
                {
                  OFFSET 2.54057 -0.884171 1.56538
                  CHANNELS 3 Zrotation Xrotation Yrotation
                  End Site
                  {
                    OFFSET 1.62519 -0.234802 1.16502
                  }
                }
              }
              JOINT lMid1
              {
                OFFSET 8.24714 1.18213 3.41376
                CHANNELS 3 Zrotation Xrotation Yrotation
                JOINT lMid2
                {
                  OFFSET 3.10165 -0.590103 1.0647
                  CHANNELS 3 Zrotation Xrotation Yrotation
                  End Site
                  {
                    OFFSET 2.48547 -0.328903 0.83742
                  }
                }
              }
              JOINT lRing1
              {
                OFFSET 8.82822 0.546677 1.51678
                CHANNELS 3 Zrotation Xrotation Yrotation
                JOINT lRing2
                {
                  OFFSET 2.60934 -0.819778 -0.0198488
                  CHANNELS 3 Zrotation Xrotation Yrotation
                  End Site
                  {
                    OFFSET 2.33842 -0.294052 0.168128
                  }
                }
              }
              JOINT lPinky1
              {
                OFFSET 8.27202 -0.0477905 -0.4584
                CHANNELS 3 Zrotation Xrotation Yrotation
                JOINT lPinky2
                {
                  OFFSET 1.82734 -0.647385 -0.700984
                  CHANNELS 3 Zrotation Xrotation Yrotation
                  End Site
                  {
                    OFFSET 1.69225 -0.51767 -0.607171
                  }
                }
              }
            }
          }
        }
      }
    }
  }
  JOINT rButtock
  {
    OFFSET -8.77824 4.35084 1.2192
    CHANNELS 3 Zrotation Xrotation Yrotation
    JOINT rThigh
    {
      OFFSET 0 -1.70687 -2.19456
      CHANNELS 3 Zrotation Xrotation Yrotation
      JOINT rShin
      {
        OFFSET 0 -36.8199 0.73152
        CHANNELS 3 Zrotation Xrotation Yrotation
        JOINT rFoot
        {
          OFFSET 0.73152 -45.1104 -5.12064
          CHANNELS 3 Zrotation Xrotation Yrotation
          End Site
          {
            OFFSET -1.1221 -3.69964 12.103
          }
        }
      }
    }
  }
  JOINT lButtock
  {
    OFFSET 8.77824 4.35084 1.2192
    CHANNELS 3 Zrotation Xrotation Yrotation
    JOINT lThigh
    {
      OFFSET 0 -1.70687 -2.19456
      CHANNELS 3 Zrotation Xrotation Yrotation
      JOINT lShin
      {
        OFFSET 0 -36.8199 0.73152
        CHANNELS 3 Zrotation Xrotation Yrotation
        JOINT lFoot
        {
          OFFSET -0.73152 -45.1104 -5.12064
          CHANNELS 3 Zrotation Xrotation Yrotation
          End Site
          {
            OFFSET 1.1221 -3.69964 12.103
          }
        }
      }
    }
  }
}
MOTION
Frames:	4
Frame Time:	0.00833333
-23.882927 0.419061 -20.35453 -13.014676 -55.2484 12.880091 -1.109783 10.458151 14.09772 -0.310216 -12.134558 3.629527 -0.949456 13.825112 10.038301 7.801926 -21.55815 20.754269 0.065861 0.528274 -0.142482 -0.254521 -0.29568 0.290199 -0.155403 -0.063268 0.006045 32.34001 81.9498 34.476048 -25.830168 -47.511658 97.66948 -31.122461 -76.78462 -38.497528 -0.050172 -0.001292 -0.022515 -0.0521 0.097895 -0.221818 0.064424 -0.002416 0.234373 7.719416 5.443794 0.373014 -0.088511 -0.067666 0.111452 2.843068 0.957046 0.25253 0.235402 -0.294572 -0.016194 10.316644 0.831571 0.184065 0.244971 0.007912 0.11063 2.220564 -0.699241 0.120243 -0.217281 -0.025969 -0.171689 -64.355865 3.05187 -37.02552 28.61038 -33.838036 -73.264534 -0.588183 28.719423 -3.04765 0.11778 0.229667 0.121935 -0.257037 0.021804 -0.113635 -0.292482 -0.163515 -0.014211 -7.642578 5.527481 -0.276498 -0.065083 -0.048568 0.157344 -2.754906 0.983953 -0.00212 -0.246387 0.086285 -0.16118 -10.358107 0.64851 -0.203338 -0.024343 0.072406 -0.246082 -2.100189 -0.790123 0.136579 0.044298 -0.033161 0.132579 -30.932993 -27.413208 -35.36531 -7.315232 84.05546 10.347385 -12.37208 -27.363535 -25.187483 0.100426 -0.175018 -0.161646 76.38455 -42.437885 72.04775 4.150351 77.02385 -3.535538 -0.210681 1.741615 -1.9407
-23.854942 0.419351 -20.33174 -12.885948 -54.99028 12.922794 -1.092721 10.437971 14.06395 -0.325266 -12.146261 3.630731 -0.956598 13.839963 9.951425 7.83318 -21.69686 20.651182 0.055642 0.522344 -0.132072 -0.242208 -0.296906 0.260359 -0.151949 -0.075139 0.013278 32.904182 81.58922 33.839375 -25.856804 -47.484016 97.59532 -30.615532 -76.578384 -37.923622 -0.04141 -0.000764 -0.021895 -0.053743 0.092852 -0.215381 0.065682 -0.006361 0.220901 7.718353 5.439266 0.378783 -0.079885 -0.081852 0.103471 2.831095 0.961953 0.251334 0.219892 -0.289839 -0.022646 10.32441 0.834492 0.187304 0.235845 0.01588 0.106292 2.233039 -0.696298 0.125233 -0.208214 -0.027974 -0.163635 -64.06583 3.147846 -36.913418 28.618826 -33.854095 -73.26121 -0.67717 28.342281 -2.934918 0.118256 0.240414 0.118816 -0.270221 0.015494 -0.123634 -0.282707 -0.156929 -0.004505 -7.649336 5.53258 -0.274339 -0.063429 -0.059714 0.143073 -2.759313 0.977619 -0.004885 -0.24152 0.064559 -0.173162 -10.360159 0.640532 -0.199714 -0.021703 0.063331 -0.249557 -2.092077 -0.786121 0.138176 0.041086 -0.043856 0.12675 -31.031004 -27.485744 -35.49357 -7.678148 84.316246 10.740487 -12.404199 -27.45648 -25.23444 0.10282 -0.182212 -0.15942 76.53986 -42.589237 72.242226 4.242734 77.10784 -3.63159 -0.189388 1.626639 -2.066914
-23.822037 0.418484 -20.289955 -12.769622 -54.682133 12.948928 -1.071315 10.427717 14.035819 -0.34414 -12.153813 3.631915 -0.965477 13.849527 9.848972 7.860776 -21.840258 20.51981 0.04567 0.513203 -0.122827 -0.227979 -0.297518 0.226777 -0.148636 -0.085895 0.018058 33.594597 81.19194 33.081924 -25.89283 -47.4244 97.46722 -30.070202 -76.38488 -37.310116 -0.035117 -0.000599 -0.018952 -0.055634 0.08891 -0.208312 0.066796 -0.011504 0.205729 7.71829 5.43512 0.383526 -0.071565 -0.094791 0.094184 2.820713 0.966992 0.248921 0.202153 -0.283523 -0.030325 10.33103 0.835741 0.190401 0.225688 0.024803 0.102237 2.245622 -0.692255 0.126998 -0.195603 -0.02764 -0.157326 -63.797813 3.26217 -36.78745 28.61962 -33.861755 -73.2422 -0.736651 27.968313 -2.847774 0.116864 0.25151 0.11438 -0.282836 0.007843 -0.13435 -0.269148 -0.148723 0.00455 -7.656784 5.538498 -0.272909 -0.061931 -0.070751 0.12823 -2.764373 0.971047 -0.008483 -0.233908 0.042664 -0.18339 -10.362619 0.63151 -0.198543 -0.020945 0.053145 -0.252723 -2.086099 -0.78067 0.138787 0.039038 -0.055844 0.120151 -31.119646 -27.556782 -35.626774 -8.010874 84.569916 11.102325 -12.442083 -27.53774 -25.297583 0.102771 -0.191601 -0.154046 76.680305 -42.743908 72.44232 4.336991 77.19474 -3.728355 -0.152637 1.505468 -2.123505
-23.78331 0.416504 -20.225876 -12.667737 -54.326412 12.951815 -1.047389 10.427687 14.014886 -0.366089 -12.157162 3.632568 -0.976796 13.851818 9.732911 7.884828 -21.984808 20.362661 0.036268 0.501295 -0.115257 -0.212451 -0.297398 0.190253 -0.145331 -0.094819 0.019907 34.410587 80.76945 32.20495 -25.938446 -47.333797 97.28657 -29.50514 -76.21346 -36.680252 -0.031859 -0.000736 -0.013769 -0.057464 0.086108 -0.20128 0.067452 -0.017696 0.189572 7.719466 5.43151 0.387022 -0.063836 -0.106109 0.084148 2.812461 0.971985 0.245331 0.183142 -0.275701 -0.039169 10.336252 0.835229 0.19383 0.214867 0.03446 0.098775 2.257466 -0.686963 0.12563 -0.179559 -0.025165 -0.152932 -63.553696 3.386484 -36.65737 28.611776 -33.8579 -73.20263 -0.7632 27.612955 -2.790962 0.11391 0.262688 0.108772 -0.29442 -0.000759 -0.145329 -0.251676 -0.138835 0.01266 -7.664628 5.545238 -0.271954 -0.060998 -0.081415 0.113588 -2.769784 0.964087 -0.012531 -0.223484 0.021298 -0.191853 -10.365071 0.621559 -0.200129 -0.022085 0.042195 -0.255383 -2.082792 -0.77395 0.138043 0.03833 -0.068642 0.112958 -31.195318 -27.627863 -35.760525 -8.303786 84.81335 11.422029 -12.488915 -27.605873 -25.380016 0.09991 -0.203164 -0.145736 76.802284 -42.899372 72.6425 4.430156 77.28273 -3.822355 -0.100855 1.383385 -2.109344
